<?xml version="1.0" encoding="UTF-8"?> <svg xmlns="http://www.w3.org/2000/svg" id="Layer_1" data-name="Layer 1" viewBox="0 0 204 40"><g><g><polygon points="21.98 34.94 21.98 16.81 22.77 15.88 22.77 34.94 21.98 34.94"></polygon><polygon points="23.29 15.27 23.29 33.39 24.08 33.39 24.08 14.82 23.29 15.27"></polygon></g><polygon points="48.94 34.94 48.94 14.95 48.15 13.92 48.15 34.94 48.94 34.94"></polygon><polygon points="47.62 13.67 47.62 33 46.84 33 46.84 13.19 47.62 13.67"></polygon><polygon points="45.37 13.47 45.37 24.91 44.58 24.91 44.58 13.19 45.37 13.47"></polygon><polygon points="26.45 13.47 26.45 24.91 25.66 24.91 25.66 13.19 26.45 13.47"></polygon><polygon points="19.33 37.58 19.33 39.41 50.64 39.41 50.64 37.58 46.62 31.27 46.62 36.86 24.15 36.94 24.15 31.94 19.33 37.58"></polygon><line x1="38.78" y1="1.75" x2="38.56" y2="8.28" style="fill: none; stroke: #000; stroke-miterlimit: 10; stroke-width: .02px;"></line><g><polygon points="28.35 5 35.74 -.41 47.94 8.33 49.04 10.08 48.49 10.56 49.64 12.73 49.64 13.16 49.91 14.27 49.64 14.53 50.43 15.8 49.96 15.8 49.8 17.29 40.25 10.19 40.36 9.82 36.53 6.69 32.6 9.98 31.81 9.45 19.85 19.57 19.22 18.98 21.06 17.13 20.69 15.96 22.21 14.53 21.95 13.47 23.57 11.94 23.31 11.3 24.68 10.35 24.62 9.87 25.2 9.29 24.99 8.92 26.14 8.02 25.99 7.43 28.61 5.47 28.35 5" style="fill: #bc202e; stroke: #000; stroke-miterlimit: 10; stroke-width: .16px;"></polygon><line x1="33.23" y1="1.43" x2="33" y2="9.64" style="fill: none; stroke: #000; stroke-miterlimit: 10; stroke-width: .16px;"></line><line x1="30.07" y1="6.18" x2="29.83" y2="10.99" style="fill: none; stroke: #000; stroke-miterlimit: 10; stroke-width: .16px;"></line><line x1="27.12" y1="6.58" x2="26.89" y2="13.61" style="fill: none; stroke: #000; stroke-miterlimit: 10; stroke-width: .16px;"></line><line x1="24.2" y1="10.72" x2="23.96" y2="16.23" style="fill: none; stroke: #000; stroke-miterlimit: 10; stroke-width: .16px;"></line><line x1="21.77" y1="15.06" x2="21.54" y2="18.05" style="fill: none; stroke: #000; stroke-miterlimit: 10; stroke-width: .16px;"></line><line x1="42.17" y1="4.19" x2="41.96" y2="10.39" style="fill: none; stroke: #000; stroke-miterlimit: 10; stroke-width: .16px;"></line><line x1="45.89" y1="6.89" x2="45.68" y2="14.1" style="fill: none; stroke: #000; stroke-miterlimit: 10; stroke-width: .16px;"></line><line x1="48.94" y1="11.39" x2="48.72" y2="16.56" style="fill: none; stroke: #000; stroke-miterlimit: 10; stroke-width: .16px;"></line><line x1="33" y1="5.42" x2="36.09" y2="2.67" style="fill: none; stroke: #000; stroke-miterlimit: 10; stroke-width: .16px;"></line><line x1="36.09" y1="2.67" x2="38.72" y2="5.01" style="fill: none; stroke: #000; stroke-miterlimit: 10; stroke-width: .16px;"></line><line x1="33" y1="7.71" x2="36.09" y2="4.95" style="fill: none; stroke: #000; stroke-miterlimit: 10; stroke-width: .16px;"></line><line x1="36.09" y1="4.95" x2="38.72" y2="7.3" style="fill: none; stroke: #000; stroke-miterlimit: 10; stroke-width: .16px;"></line><line x1="38.67" y1="3.84" x2="41.99" y2="6.81" style="fill: none; stroke: #000; stroke-miterlimit: 10; stroke-width: .16px;"></line><line x1="38.56" y1="6.33" x2="41.89" y2="9.31" style="fill: none; stroke: #000; stroke-miterlimit: 10; stroke-width: .16px;"></line><line x1="42.07" y1="7.82" x2="45.77" y2="11.14" style="fill: none; stroke: #000; stroke-miterlimit: 10; stroke-width: .16px;"></line><line x1="42.17" y1="5.15" x2="45.87" y2="8.47" style="fill: none; stroke: #000; stroke-miterlimit: 10; stroke-width: .16px;"></line><line x1="42.07" y1="10.39" x2="45.77" y2="13.71" style="fill: none; stroke: #000; stroke-miterlimit: 10; stroke-width: .16px;"></line><line x1="45.68" y1="12.35" x2="48.83" y2="15.18" style="fill: none; stroke: #000; stroke-miterlimit: 10; stroke-width: .16px;"></line><line x1="45.79" y1="9.31" x2="48.83" y2="12.13" style="fill: none; stroke: #000; stroke-miterlimit: 10; stroke-width: .16px;"></line><line x1="48.91" y1="13.77" x2="49.84" y2="14.85" style="fill: none; stroke: #000; stroke-miterlimit: 10; stroke-width: .16px;"></line><line x1="35.74" y1=".73" x2="38.72" y2="3.21" style="fill: none; stroke: #000; stroke-miterlimit: 10; stroke-width: .16px;"></line><line x1="29.88" y1="6.33" x2="33.21" y2="3.69" style="fill: none; stroke: #000; stroke-miterlimit: 10; stroke-width: .16px;"></line><line x1="28.39" y1="5.75" x2="31.73" y2="3.11" style="fill: none; stroke: #000; stroke-miterlimit: 10; stroke-width: .16px;"></line><line x1="24.35" y1="11.4" x2="26.58" y2="9.64" style="fill: none; stroke: #000; stroke-miterlimit: 10; stroke-width: .16px;"></line><line x1="33.43" y1="2.63" x2="35.74" y2=".73" style="fill: none; stroke: #000; stroke-miterlimit: 10; stroke-width: .16px;"></line><line x1="26.89" y1="10.08" x2="30.06" y2="7.46" style="fill: none; stroke: #000; stroke-miterlimit: 10; stroke-width: .16px;"></line><line x1="24.91" y1="9.59" x2="27.12" y2="7.79" style="fill: none; stroke: #000; stroke-miterlimit: 10; stroke-width: .16px;"></line><line x1="24.08" y1="13.61" x2="26.89" y2="11.29" style="fill: none; stroke: #000; stroke-miterlimit: 10; stroke-width: .16px;"></line><line x1="26.89" y1="12.71" x2="30.06" y2="10.08" style="fill: none; stroke: #000; stroke-miterlimit: 10; stroke-width: .16px;"></line><line x1="20.79" y1="17.37" x2="23.96" y2="14.74" style="fill: none; stroke: #000; stroke-miterlimit: 10; stroke-width: .16px;"></line><line x1="29.96" y1="8.94" x2="33.06" y2="6.33" style="fill: none; stroke: #000; stroke-miterlimit: 10; stroke-width: .16px;"></line></g><path d="M35.53,20.1v9.23c.5,3.16-1.69,5.43-1.69,5.43-3.35,3.31-7.3,1.02-7.3,1.02-3.95-3.01-2.36-7.04-2.36-7.04l3.48-8.92c4.03-5.44,7.86.28,7.86.28ZM34.41,27.33v-6.48c-3.54-3.42-5.96-.3-5.96-.3,0,0-2.77,5.75-2.36,5.47,5.07-3.37,8.31,1.3,8.31,1.3ZM29.74,25.86c-2.72,0-4.93,2.21-4.93,4.93s2.21,4.93,4.93,4.93,4.93-2.21,4.93-4.93-2.21-4.93-4.93-4.93Z"></path><path d="M43.35,19.82l3.48,8.92s1.59,4.03-2.36,7.04c0,0-3.95,2.29-7.3-1.02,0,0-2.19-2.27-1.69-5.43v-9.23s3.83-5.72,7.86-.28ZM44.93,26.03c.42.28-2.36-5.47-2.36-5.47,0,0-2.42-3.13-5.96.3v6.48s3.25-4.67,8.31-1.3ZM36.36,30.79c0,2.72,2.21,4.93,4.93,4.93s4.93-2.21,4.93-4.93-2.21-4.93-4.93-4.93-4.93,2.21-4.93,4.93Z"></path></g><g><path d="M85.54,35.31v-.38h1.99v.38h-1.99ZM86.33,37.77v-2.61h.4v2.61h-.4Z" style="fill: #eb1d25;"></path><path d="M87.8,37.77v-2.84h.4v2.84h-.4ZM89.02,37.77v-1.23c0-.14-.04-.25-.11-.33-.07-.08-.18-.12-.31-.12s-.23.03-.3.1-.11.16-.11.29l-.04-.39c.06-.12.14-.21.24-.28s.21-.1.33-.1c.22,0,.39.07.51.22.12.14.18.35.18.61v1.23h-.4Z" style="fill: #eb1d25;"></path><path d="M90.84,37.8c-.28,0-.5-.08-.65-.24s-.23-.38-.23-.67v-.23c0-.3.07-.54.22-.7s.36-.25.62-.25c.25,0,.45.09.59.28.14.19.21.45.21.79v.13h-1.36v-.32h.98c-.01-.16-.05-.29-.13-.38-.07-.09-.17-.14-.29-.14-.15,0-.26.05-.35.15-.08.1-.12.24-.12.42v.26c0,.17.04.3.13.39.09.09.21.13.37.13.08,0,.16-.02.24-.05.08-.03.15-.08.21-.14l.26.26c-.1.1-.21.17-.34.22s-.25.08-.37.08Z" style="fill: #eb1d25;"></path><path d="M93.25,37.77v-2.84h.39v2.84h-.39ZM93.48,37.77v-.37h.76c.21,0,.36-.04.44-.12.09-.08.13-.19.13-.32h0c0-.15-.04-.26-.11-.34-.07-.08-.2-.13-.37-.13h-.86v-.36h.86c.15,0,.26-.04.33-.1s.11-.17.11-.31c0-.14-.04-.25-.12-.32-.08-.07-.21-.11-.37-.11h-.81v-.37h.88c.28,0,.48.07.62.21s.2.33.2.56c0,.14-.04.27-.12.39-.08.12-.21.19-.39.23.17.03.31.1.41.23.1.13.14.28.14.44h0c0,.24-.07.42-.22.57s-.35.21-.6.21h-.91Z" style="fill: #eb1d25;"></path><path d="M96.59,37.8c-.28,0-.5-.08-.65-.24s-.23-.38-.23-.67v-.23c0-.3.07-.54.22-.7s.36-.25.62-.25c.25,0,.45.09.59.28.14.19.21.45.21.79v.13h-1.36v-.32h.98c-.01-.16-.05-.29-.13-.38-.07-.09-.17-.14-.29-.14-.15,0-.26.05-.35.15-.08.1-.12.24-.12.42v.26c0,.17.04.3.13.39.09.09.21.13.37.13.08,0,.16-.02.24-.05.08-.03.15-.08.21-.14l.26.26c-.1.1-.21.17-.34.22s-.25.08-.37.08Z" style="fill: #eb1d25;"></path><path d="M98.54,37.8c-.25,0-.43-.05-.55-.15-.12-.1-.19-.26-.19-.47s.06-.35.17-.45c.11-.1.28-.15.51-.15h.57l.03.32h-.6c-.1,0-.18.02-.23.07s-.08.12-.08.21c0,.1.03.18.1.23s.17.07.31.07c.15,0,.26-.02.34-.05.08-.03.11-.08.11-.15l.04.29c-.04.05-.08.1-.13.13s-.11.06-.18.08c-.07.02-.14.03-.23.03ZM99.03,37.77v-1.29c0-.13-.04-.24-.11-.31s-.17-.11-.3-.11c-.08,0-.16.01-.23.04-.08.02-.15.06-.21.1l-.29-.2c.08-.09.18-.16.3-.22s.26-.08.42-.08c.25,0,.45.07.59.2s.21.32.21.56v1.3h-.38Z" style="fill: #eb1d25;"></path><path d="M100.4,35.74v1.23c0,.14.04.25.11.33s.17.12.3.12.23-.04.3-.1.11-.17.11-.29l.03.42c-.04.09-.1.17-.19.25s-.21.11-.35.11c-.22,0-.39-.07-.51-.22s-.18-.35-.18-.61v-1.23h.4ZM101.22,37.77v-2.03h.39v2.03h-.39Z" style="fill: #eb1d25;"></path><path d="M102.06,36.1v-.36h.91v.36h-.91ZM102.74,37.78c-.17,0-.29-.05-.36-.14s-.11-.23-.11-.4v-2.09h.4v2.09s0,.09.03.11.05.04.09.04h.19v.38h-.23Z" style="fill: #eb1d25;"></path><path d="M104.1,37.94l-.8-2.19h.4l.62,1.76-.22.43ZM104.67,35.74h.4l-.86,2.5c-.05.14-.12.24-.21.29-.09.05-.21.08-.37.08h-.08v-.38h.08c.07,0,.13-.01.17-.04.04-.03.08-.08.11-.15l.74-2.29Z" style="fill: #eb1d25;"></path><path d="M106.34,36.1v-.36h.91v.36h-.91ZM107.01,37.78c-.17,0-.29-.05-.36-.14s-.11-.23-.11-.4v-2.09h.4v2.09s0,.09.03.11.05.04.08.04h.19v.38h-.23Z" style="fill: #eb1d25;"></path><path d="M107.79,37.77v-2.84h.4v2.84h-.4ZM109.01,37.77v-1.23c0-.14-.04-.25-.11-.33s-.18-.12-.31-.12-.23.03-.3.1-.11.16-.11.29l-.04-.39c.06-.12.14-.21.24-.28.1-.07.21-.1.33-.1.22,0,.39.07.51.22.12.14.18.35.18.61v1.23h-.4Z" style="fill: #eb1d25;"></path><path d="M110.65,37.8c-.25,0-.43-.05-.55-.15s-.18-.26-.18-.47.06-.35.17-.45.28-.15.51-.15h.57l.03.32h-.6c-.1,0-.18.02-.23.07s-.08.12-.08.21c0,.1.04.18.1.23s.17.07.31.07c.15,0,.26-.02.34-.05.08-.03.11-.08.11-.15l.04.29c-.04.05-.08.1-.13.13s-.11.06-.18.08c-.07.02-.14.03-.23.03ZM111.14,37.77v-1.29c0-.13-.04-.24-.11-.31s-.17-.11-.3-.11c-.08,0-.16.01-.23.04-.08.02-.15.06-.21.1l-.29-.2c.08-.09.18-.16.3-.22.12-.05.26-.08.42-.08.25,0,.45.07.58.2.14.13.21.32.21.56v1.3h-.38Z" style="fill: #eb1d25;"></path><path d="M111.96,36.1v-.36h.91v.36h-.91ZM112.64,37.78c-.17,0-.29-.05-.36-.14s-.11-.23-.11-.4v-2.09h.4v2.09s0,.09.03.11.05.04.08.04h.19v.38h-.23Z" style="fill: #eb1d25;"></path><path d="M114.87,34.93v2.32s.01.09.03.11.05.04.09.04h.19v.38h-.23c-.15,0-.26-.05-.35-.14-.08-.09-.12-.23-.12-.4v-2.31h.4Z" style="fill: #eb1d25;"></path><path d="M116.25,37.8c-.25,0-.43-.05-.55-.15-.12-.1-.19-.26-.19-.47s.06-.35.17-.45.28-.15.51-.15h.57l.03.32h-.6c-.1,0-.18.02-.23.07-.05.05-.08.12-.08.21,0,.1.03.18.1.23s.17.07.31.07c.15,0,.26-.02.34-.05s.11-.08.11-.15l.04.29c-.04.05-.08.1-.13.13s-.11.06-.18.08-.14.03-.23.03ZM116.74,37.77v-1.29c0-.13-.04-.24-.11-.31s-.17-.11-.3-.11c-.08,0-.16.01-.23.04-.08.02-.15.06-.21.1l-.29-.2c.08-.09.18-.16.3-.22s.26-.08.42-.08c.25,0,.45.07.58.2.14.13.21.32.21.56v1.3h-.38Z" style="fill: #eb1d25;"></path><path d="M118.43,37.8c-.18,0-.34-.03-.49-.08-.15-.05-.28-.13-.39-.24l.23-.29c.11.08.22.15.32.19s.21.06.32.06c.16,0,.27-.02.35-.07s.12-.12.12-.22c0-.08-.03-.13-.08-.16-.05-.03-.12-.05-.21-.06-.08,0-.17-.02-.27-.02-.08,0-.16-.02-.24-.03s-.15-.04-.22-.07c-.07-.04-.12-.09-.16-.16-.04-.07-.06-.17-.06-.28,0-.21.07-.38.2-.48.13-.11.33-.16.58-.16.16,0,.3.02.44.06s.26.11.38.2l-.24.29c-.1-.07-.2-.11-.3-.15s-.19-.05-.29-.05c-.13,0-.24.02-.3.07s-.1.12-.1.21c0,.06.02.11.07.13.05.03.11.04.18.05s.16.01.25.02c.08,0,.17.01.25.03s.17.04.24.08.13.1.17.17.07.18.07.31c0,.22-.07.38-.21.49-.14.11-.35.16-.63.16Z" style="fill: #eb1d25;"></path><path d="M119.62,36.1v-.36h.91v.36h-.91ZM120.3,37.78c-.17,0-.29-.05-.36-.14s-.11-.23-.11-.4v-2.09h.4v2.09s0,.09.03.11c.02.03.05.04.08.04h.19v.38h-.23Z" style="fill: #eb1d25;"></path><path d="M121.78,37.8c-.18,0-.34-.03-.49-.08-.15-.05-.28-.13-.39-.24l.23-.29c.11.08.22.15.32.19s.21.06.32.06c.16,0,.27-.02.35-.07s.12-.12.12-.22c0-.08-.03-.13-.08-.16-.05-.03-.12-.05-.21-.06-.08,0-.17-.02-.27-.02-.08,0-.16-.02-.24-.03s-.15-.04-.22-.07c-.07-.04-.12-.09-.16-.16-.04-.07-.06-.17-.06-.28,0-.21.07-.38.2-.48.13-.11.33-.16.58-.16.16,0,.3.02.44.06s.26.11.38.2l-.24.29c-.1-.07-.2-.11-.3-.15s-.19-.05-.29-.05c-.13,0-.24.02-.3.07s-.1.12-.1.21c0,.06.02.11.07.13.05.03.11.04.18.05s.16.01.25.02c.08,0,.17.01.25.03s.17.04.24.08.13.1.17.17.07.18.07.31c0,.22-.07.38-.21.49-.14.11-.35.16-.63.16Z" style="fill: #eb1d25;"></path><path d="M124.83,37.8c-.22,0-.39-.07-.51-.22-.12-.14-.18-.35-.18-.61v-.45c0-.26.06-.47.18-.61.12-.14.28-.22.5-.22.12,0,.23.03.33.09s.18.15.24.26l-.04.41c0-.09-.02-.16-.05-.22-.03-.06-.08-.11-.13-.14-.06-.03-.13-.05-.21-.05-.13,0-.23.04-.3.12-.07.08-.11.2-.11.35v.44c0,.15.04.26.11.34.07.08.17.12.3.12.08,0,.16-.02.21-.05.06-.03.1-.08.13-.14.03-.06.05-.14.05-.22l.03.43c-.04.09-.1.17-.19.25-.09.07-.2.11-.35.11ZM124.87,38.59c-.15,0-.29-.03-.41-.08-.12-.06-.21-.14-.28-.24l.27-.24c.05.07.11.13.19.17.07.04.15.06.23.06.15,0,.27-.04.35-.13s.12-.2.12-.36v-2.03h.4v1.97c0,.28-.08.5-.23.65s-.36.23-.64.23Z" style="fill: #eb1d25;"></path><path d="M127.16,37.8c-.28,0-.5-.08-.65-.24s-.23-.38-.23-.67v-.23c0-.3.07-.54.22-.7.15-.17.36-.25.62-.25.25,0,.45.09.59.28s.21.45.21.79v.13h-1.36v-.32h.98c-.01-.16-.05-.29-.13-.38-.07-.09-.17-.14-.29-.14-.15,0-.26.05-.35.15s-.12.24-.12.42v.26c0,.17.04.3.13.39.09.09.21.13.37.13.08,0,.16-.02.24-.05.08-.03.15-.08.21-.14l.26.26c-.1.1-.21.17-.33.22s-.25.08-.37.08Z" style="fill: #eb1d25;"></path><path d="M128.46,37.77v-2.03h.4v2.03h-.4ZM129.68,37.77v-1.23c0-.14-.04-.25-.11-.33-.07-.08-.18-.12-.31-.12s-.23.03-.3.1-.11.17-.11.29l-.04-.39c.06-.12.14-.22.24-.28.1-.07.21-.1.33-.1.22,0,.39.07.51.22.12.14.18.35.18.61v1.23h-.39Z" style="fill: #eb1d25;"></path><path d="M131.5,37.8c-.28,0-.5-.08-.65-.24s-.23-.38-.23-.67v-.23c0-.3.07-.54.22-.7.15-.17.36-.25.62-.25.25,0,.45.09.59.28s.21.45.21.79v.13h-1.36v-.32h.98c-.01-.16-.05-.29-.13-.38-.07-.09-.17-.14-.29-.14-.15,0-.26.05-.35.15s-.12.24-.12.42v.26c0,.17.04.3.13.39.09.09.21.13.37.13.08,0,.16-.02.24-.05.08-.03.15-.08.21-.14l.26.26c-.1.1-.21.17-.33.22s-.25.08-.37.08Z" style="fill: #eb1d25;"></path><path d="M132.8,37.77v-2.03h.4v2.03h-.4ZM133.91,36.22s-.08-.08-.13-.1c-.05-.02-.12-.03-.18-.03-.12,0-.22.04-.29.1-.07.07-.1.17-.1.29l-.04-.39c.06-.12.14-.21.24-.28.1-.07.21-.1.33-.1.09,0,.17.01.25.04s.14.07.19.12l-.26.35Z" style="fill: #eb1d25;"></path><path d="M135.14,37.8c-.25,0-.43-.05-.55-.15-.12-.1-.19-.26-.19-.47s.06-.35.17-.45.28-.15.51-.15h.57l.03.32h-.6c-.1,0-.18.02-.23.07-.05.05-.08.12-.08.21,0,.1.03.18.1.23s.17.07.31.07c.15,0,.26-.02.34-.05s.11-.08.11-.15l.04.29c-.04.05-.08.1-.13.13s-.11.06-.18.08-.14.03-.23.03ZM135.63,37.77v-1.29c0-.13-.04-.24-.11-.31s-.17-.11-.3-.11c-.08,0-.16.01-.23.04-.08.02-.15.06-.21.1l-.29-.2c.08-.09.18-.16.3-.22s.26-.08.42-.08c.25,0,.45.07.58.2.14.13.21.32.21.56v1.3h-.38Z" style="fill: #eb1d25;"></path><path d="M136.46,36.1v-.36h.91v.36h-.91ZM137.13,37.78c-.17,0-.29-.05-.36-.14s-.11-.23-.11-.4v-2.09h.4v2.09s0,.09.03.11c.02.03.05.04.08.04h.19v.38h-.23Z" style="fill: #eb1d25;"></path><path d="M137.9,35.33v-.4h.4v.4h-.4ZM137.9,37.77v-2.03h.4v2.03h-.4Z" style="fill: #eb1d25;"></path><path d="M139.67,37.8c-.26,0-.47-.08-.61-.23s-.22-.37-.22-.65v-.33c0-.28.07-.49.22-.64s.35-.23.61-.23.47.08.61.23.22.37.22.64v.34c0,.28-.07.49-.22.65s-.35.23-.61.23ZM139.67,37.42c.14,0,.25-.04.32-.13.08-.09.11-.21.11-.37v-.34c0-.16-.04-.28-.11-.37-.08-.09-.18-.13-.32-.13s-.24.04-.32.13-.11.21-.11.37v.34c0,.16.04.28.11.37s.18.13.32.13Z" style="fill: #eb1d25;"></path><path d="M141.06,37.77v-2.03h.4v2.03h-.4ZM142.28,37.77v-1.23c0-.14-.04-.25-.11-.33-.07-.08-.18-.12-.31-.12s-.23.03-.3.1-.11.17-.11.29l-.04-.39c.06-.12.14-.22.24-.28.1-.07.21-.1.33-.1.22,0,.39.07.51.22.12.14.18.35.18.61v1.23h-.39Z" style="fill: #eb1d25;"></path><path d="M143.99,37.8c-.18,0-.34-.03-.49-.08-.15-.05-.28-.13-.39-.24l.23-.29c.11.08.22.15.32.19s.21.06.32.06c.16,0,.27-.02.35-.07s.12-.12.12-.22c0-.08-.03-.13-.08-.16-.05-.03-.12-.05-.21-.06-.08,0-.17-.02-.27-.02-.08,0-.16-.02-.24-.03s-.15-.04-.22-.07c-.07-.04-.12-.09-.16-.16-.04-.07-.06-.17-.06-.28,0-.21.07-.38.2-.48.13-.11.33-.16.58-.16.16,0,.3.02.44.06s.26.11.38.2l-.24.29c-.1-.07-.2-.11-.3-.15s-.19-.05-.29-.05c-.13,0-.24.02-.3.07s-.1.12-.1.21c0,.06.02.11.07.13.05.03.11.04.18.05s.16.01.25.02c.08,0,.17.01.25.03s.17.04.24.08.13.1.17.17.07.18.07.31c0,.22-.07.38-.21.49-.14.11-.35.16-.63.16Z" style="fill: #eb1d25;"></path></g><g><path d="M74.69,2.59h4.94l1.91,7.48,1.89-7.48h4.94v12.29h-3.08V5.51l-2.37,9.37h-2.79l-2.37-9.37v9.37h-3.08V2.59Z" style="fill: #eb1d25;"></path><path d="M99.1,12.85h-4.27l-.59,2.03h-3.84l4.57-12.29h4.1l4.57,12.29h-3.94l-.61-2.03ZM98.32,10.19l-1.34-4.42-1.33,4.42h2.67Z" style="fill: #eb1d25;"></path><path d="M105.04,10.81l3.58-.23c.08.59.23,1.03.47,1.34.39.5.94.75,1.66.75.54,0,.95-.13,1.24-.38.29-.25.44-.55.44-.88s-.14-.6-.42-.85-.92-.49-1.92-.71c-1.65-.37-2.82-.87-3.53-1.49-.71-.62-1.06-1.41-1.06-2.37,0-.63.18-1.23.54-1.79s.91-1,1.63-1.32,1.72-.48,2.99-.48c1.55,0,2.74.29,3.56.88.82.58,1.3,1.51,1.46,2.79l-3.54.21c-.09-.55-.29-.96-.59-1.21s-.72-.38-1.25-.38c-.44,0-.77.09-.99.28-.22.19-.33.42-.33.68,0,.2.09.37.27.53.18.16.6.31,1.26.45,1.64.36,2.82.72,3.53,1.09.71.37,1.23.82,1.55,1.36.32.54.49,1.15.49,1.82,0,.79-.22,1.51-.65,2.18s-1.03,1.17-1.81,1.51c-.78.34-1.75.52-2.93.52-2.07,0-3.5-.4-4.3-1.21s-1.25-1.83-1.35-3.07Z" style="fill: #eb1d25;"></path><path d="M117.96,2.59h11.43v3.03h-3.83v9.25h-3.76V5.62h-3.83v-3.03Z" style="fill: #eb1d25;"></path><path d="M131.93,2.59h10.07v2.62h-6.31v1.95h5.85v2.51h-5.85v2.42h6.49v2.78h-10.26V2.59Z" style="fill: #eb1d25;"></path><path d="M145.11,14.88V2.59h6.26c1.16,0,2.05.1,2.66.3s1.11.57,1.49,1.12c.38.54.56,1.21.56,1.99,0,.68-.14,1.27-.43,1.76s-.68.9-1.19,1.2c-.32.2-.76.36-1.32.49.45.15.77.3.98.45.14.1.34.32.6.65s.44.58.53.76l1.82,3.56h-4.25l-2.01-3.76c-.25-.49-.48-.8-.68-.95-.27-.19-.58-.28-.92-.28h-.33v4.99h-3.78ZM148.89,7.57h1.58c.17,0,.5-.06,1-.17.25-.05.45-.18.61-.39.16-.21.24-.44.24-.71,0-.4-.12-.7-.37-.91-.25-.21-.72-.32-1.4-.32h-1.65v2.5Z" style="fill: #eb1d25;"></path></g><g><path d="M66.07,21.2v7.92h-1.05v-7.92h1.05Z" style="fill: #eb1d25;"></path><path d="M68.35,29.12v-7.92h1.23c.36,1.26,1.36,5.28,1.46,5.79h.02c-.05-1.01-.06-2.13-.06-3.42v-2.37h.98v7.92h-1.19c-.32-1.17-1.4-5.52-1.5-5.98h-.01c.06.96.06,2.11.06,3.54v2.44h-.99Z" style="fill: #eb1d25;"></path><path d="M74.25,21.2h1.57c1.68,0,2,.95,2,2.33v3.08c0,1.21-.2,2.51-2.02,2.51h-1.55v-7.92ZM75.3,28.21h.42c.86,0,1.02-.53,1.02-1.44v-3.34c0-.81-.14-1.31-1.02-1.31h-.42v6.09Z" style="fill: #eb1d25;"></path><path d="M80.93,21.2v6.08c0,.61.2.99.72.99s.71-.39.71-.98v-6.08h1.05v6.06c0,1.24-.55,1.98-1.78,1.98s-1.75-.65-1.75-1.96v-6.07h1.05Z" style="fill: #eb1d25;"></path><path d="M86.34,26.83v.48c0,.66.21,1.01.71,1.01s.67-.43.67-1.1c0-.88-.19-1.19-1.02-1.85-.84-.67-1.28-1.09-1.28-2.26,0-1.03.31-2.04,1.64-2.04,1.33,0,1.59.94,1.59,1.86v.4h-1.04v-.37c0-.6-.11-.97-.56-.97s-.57.4-.57.97c0,.63.12.91.82,1.44,1.14.86,1.49,1.35,1.49,2.67,0,1.12-.36,2.16-1.76,2.16s-1.73-.89-1.73-1.94v-.46h1.05Z" style="fill: #eb1d25;"></path><path d="M91.5,22.18h-1.26v-.99h3.58v.99h-1.26v6.93h-1.05v-6.93Z" style="fill: #eb1d25;"></path><path d="M96.59,25.51v3.61h-1.05v-7.92h1.55c1.19,0,1.84.5,1.84,1.87v.33c0,1.16-.44,1.52-.8,1.66.47.2.72.56.72,1.62,0,.67-.01,1.95.07,2.44h-1.02c-.1-.49-.08-1.8-.08-2.37,0-.99-.13-1.24-.86-1.24h-.37ZM96.59,24.62h.38c.68,0,.9-.33.9-1.18v-.31c0-.66-.15-1.06-.88-1.06h-.4v2.54Z" style="fill: #eb1d25;"></path><path d="M102.08,21.2v7.92h-1.05v-7.92h1.05Z" style="fill: #eb1d25;"></path><path d="M107.14,25.41h-1.74v2.73h1.99l-.14.98h-2.91v-7.92h2.89v.99h-1.83v2.25h1.74v.98Z" style="fill: #eb1d25;"></path><path d="M110.06,26.83v.48c0,.66.21,1.01.71,1.01s.67-.43.67-1.1c0-.88-.19-1.19-1.02-1.85-.84-.67-1.28-1.09-1.28-2.26,0-1.03.31-2.04,1.64-2.04,1.33,0,1.59.94,1.59,1.86v.4h-1.04v-.37c0-.6-.11-.97-.57-.97s-.57.4-.57.97c0,.63.12.91.82,1.44,1.14.86,1.49,1.35,1.49,2.67,0,1.12-.36,2.16-1.76,2.16s-1.73-.89-1.73-1.94v-.46h1.05Z" style="fill: #eb1d25;"></path><path d="M119.45,20.76c-.66,1.16-1.27,2.62-1.27,4.74,0,1.98.5,3.48,1.27,4.89h-1c-.62-1.04-1.24-2.71-1.24-4.9s.67-3.76,1.24-4.73h1Z" style="fill: #eb1d25;"></path><path d="M122.37,21.2v6.08c0,.61.2.99.72.99s.71-.39.71-.98v-6.08h1.05v6.06c0,1.24-.55,1.98-1.78,1.98s-1.75-.65-1.75-1.96v-6.07h1.05Z" style="fill: #eb1d25;"></path><path d="M126.73,30.38c.66-1.16,1.27-2.62,1.27-4.74,0-1.98-.5-3.48-1.27-4.89h1.01c.62,1.04,1.24,2.71,1.24,4.9s-.67,3.76-1.24,4.73h-1.01Z" style="fill: #eb1d25;"></path><path d="M133.97,21.2h1.05v6.97h1.97l-.1.95h-2.92v-7.92Z" style="fill: #eb1d25;"></path><path d="M139.72,21.2v7.92h-1.05v-7.92h1.05Z" style="fill: #eb1d25;"></path><path d="M145.94,26.02c0-1.39.02-3.02.04-3.9h-.01c-.19,1.36-.69,4.68-1.06,7h-1c-.28-2.05-.79-5.57-.98-7.01h-.02c.02.92.06,2.72.06,4.08v2.93h-.96v-7.92h1.56c.36,2.15.76,4.68.86,5.75h.01c.12-1.07.62-3.72.99-5.75h1.52v7.92h-1v-3.1Z" style="fill: #eb1d25;"></path><path d="M150.27,21.2v7.92h-1.05v-7.92h1.05Z" style="fill: #eb1d25;"></path><path d="M153.29,22.18h-1.26v-.99h3.58v.99h-1.26v6.93h-1.05v-6.93Z" style="fill: #eb1d25;"></path><path d="M160.11,25.41h-1.74v2.73h1.99l-.14.98h-2.91v-7.92h2.89v.99h-1.83v2.25h1.74v.98Z" style="fill: #eb1d25;"></path><path d="M162.15,21.2h1.57c1.68,0,2,.95,2,2.33v3.08c0,1.21-.2,2.51-2.02,2.51h-1.55v-7.92ZM163.2,28.21h.42c.86,0,1.02-.53,1.02-1.44v-3.34c0-.81-.14-1.31-1.03-1.31h-.42v6.09Z" style="fill: #eb1d25;"></path></g><rect x="58.95" y="18.04" width="112.66" height="14.85" style="fill: none; stroke: #2e3192; stroke-miterlimit: 10; stroke-width: .47px;"></rect></svg> 